<svg width="500" height="500" viewBox="0 0 500 500" fill="none" xmlns="http://www.w3.org/2000/svg">
<path d="M413.37 90.4932L407.468 98.5654L396.974 90.8936L387.53 103.81L398.025 111.482L392.123 119.555L379.539 110.354L373.31 118.875C408.207 151.705 430 198.306 430 250C430 349.411 349.411 430 250 430C232.837 430 216.235 427.597 200.512 423.11L212.918 379.843C224.7 383.201 237.14 385 250 385C324.558 385 385 324.558 385 250C385 175.442 324.558 115 250 115C175.442 115 115 175.442 115 250C115 266.275 117.88 281.877 123.158 296.325L80.8604 311.721C73.8337 292.47 70 271.683 70 250C70 150.589 150.589 70 250 70C283.333 70 314.549 79.0611 341.321 94.8535L347.248 86.7471L334 77.0615L339.901 68.9893L350.396 76.6611L359.839 63.7451L349.345 56.0723L355.247 48L413.37 90.4932Z" fill="#8B5CF6"/>
<path d="M252.625 187.25C255.375 187.25 258.375 187.333 261.625 187.5C264.958 187.583 268.042 187.958 270.875 188.625C273.792 189.208 276.208 190.125 278.125 191.375C280.042 192.625 281 194.417 281 196.75C281 197.5 280.875 198.458 280.625 199.625C280.375 200.708 279.667 202.542 278.5 205.125C277.333 207.542 275.958 209.375 274.375 210.625C272.875 211.792 270.917 212.375 268.5 212.375C265.083 212.375 261.458 212 257.625 211.25C253.875 210.417 250.083 210 246.25 210C244.167 210 242.042 210.125 239.875 210.375C237.792 210.542 235.875 210.917 234.125 211.5C232.375 212 230.958 212.792 229.875 213.875C228.792 214.875 228.25 216.167 228.25 217.75C228.25 219.333 229.375 221.125 231.625 223.125C233.958 225.125 237 227.333 240.75 229.75C244.583 232.167 248.917 234.833 253.75 237.75C258.583 240.583 263.5 243.667 268.5 247C273.583 250.25 278.542 253.75 283.375 257.5C288.208 261.167 292.5 265.083 296.25 269.25C300.083 273.333 303.125 277.667 305.375 282.25C307.708 286.833 308.875 291.583 308.875 296.5C308.875 302.5 307.5 307.792 304.75 312.375C302 316.958 298.458 320.792 294.125 323.875C289.792 326.958 285 329.25 279.75 330.75C274.5 332.333 269.375 333.125 264.375 333.125C259.292 333.125 254.125 332.5 248.875 331.25C243.708 330.083 238.708 328.375 233.875 326.125C229.042 323.958 224.5 321.333 220.25 318.25C216.083 315.083 212.458 311.583 209.375 307.75C206.292 303.833 203.833 299.625 202 295.125C200.25 290.625 199.375 285.917 199.375 281C199.375 278.917 199.5 276.833 199.75 274.75C200.083 272.583 200.625 270.708 201.375 269.125C202.125 267.458 203.167 266.125 204.5 265.125C205.833 264.042 207.542 263.5 209.625 263.5C210.292 263.5 211.042 263.583 211.875 263.75C212.708 263.833 214.167 264.208 216.25 264.875C218.667 265.625 220.792 266.833 222.625 268.5C224.542 270.083 225.5 272.167 225.5 274.75C225.5 279.75 226.708 284.417 229.125 288.75C231.625 293 234.875 296.75 238.875 300C242.875 303.167 247.458 305.667 252.625 307.5C257.792 309.25 263.083 310.125 268.5 310.125C270.167 310.125 271.875 310 273.625 309.75C275.375 309.417 276.958 308.875 278.375 308.125C279.792 307.375 280.958 306.417 281.875 305.25C282.792 304 283.25 302.458 283.25 300.625C283.25 297.125 282 293.667 279.5 290.25C277.083 286.833 273.875 283.458 269.875 280.125C265.875 276.708 261.292 273.333 256.125 270C250.958 266.583 245.708 263.208 240.375 259.875C235.042 256.542 229.792 253.208 224.625 249.875C219.458 246.458 214.875 243.083 210.875 239.75C206.875 236.333 203.625 232.917 201.125 229.5C198.708 226 197.5 222.5 197.5 219C197.5 215.667 198.333 212.583 200 209.75C201.75 206.833 204.042 204.208 206.875 201.875C209.708 199.542 213 197.458 216.75 195.625C220.5 193.792 224.417 192.25 228.5 191C232.583 189.75 236.667 188.833 240.75 188.25C244.917 187.583 248.875 187.25 252.625 187.25ZM250 242C245.582 242 242 245.582 242 250C242 254.418 245.582 258 250 258C254.418 258 258 254.418 258 250C258 245.582 254.418 242 250 242Z" fill="#8B5CF6"/>
</svg>
